<?xml version="1.0" encoding="UTF-8"?>
<svg version="1.1" xmlns="http://www.w3.org/2000/svg" width="267" height="189">
<path d="M0 0 C88.11 0 176.22 0 267 0 C267 62.37 267 124.74 267 189 C178.89 189 90.78 189 0 189 C0 126.63 0 64.26 0 0 Z " fill="#FEFEFE" transform="translate(0,0)"/>
<path d="M0 0 C1.5053356 1.17557144 2.9871488 2.38222694 4.4375 3.625 C5.06914062 4.14707031 5.70078125 4.66914062 6.3515625 5.20703125 C12.6525957 10.91127056 18.22269533 19.12136729 19.4375 27.625 C20.345 27.50125 21.2525 27.3775 22.1875 27.25 C29.14261531 27.29232322 35.65401645 31.29715962 40.84765625 35.640625 C47.07959084 42.11717758 50.52145589 49.66505435 50.875 58.6875 C50.38516808 68.65794967 46.93703165 76.6036885 39.55078125 83.34765625 C30.64441275 90.4692515 22.25274519 91.08755254 11.27197266 90.96118164 C9.04683928 90.93733214 6.8228872 90.94066764 4.59765625 90.94726562 C-6.28305123 90.90444877 -6.28305123 90.90444877 -8.5625 88.625 C-8.3125 86.0625 -8.3125 86.0625 -7.5625 83.625 C-4.67025034 82.17887517 -2.13084912 82.49705321 1.09765625 82.484375 C2.46290703 82.46602627 3.82814181 82.4464541 5.19335938 82.42578125 C7.33710347 82.39699306 9.47983035 82.37500464 11.6237793 82.37451172 C20.13948794 82.36065699 27.58803895 82.26714945 34.4375 76.625 C36.6201843 74.44192128 36.6201843 74.44192128 37.9375 72.0625 C38.4015625 71.31871094 38.865625 70.57492188 39.34375 69.80859375 C42.27187243 63.96280648 42.54951712 57.16890504 40.6015625 50.9609375 C37.83900222 44.82397474 34.35537253 40.85602236 28.4375 37.625 C23.5116551 35.77780816 18.63838924 35.17246203 13.4375 34.625 C13.14617187 33.86316406 12.85484375 33.10132813 12.5546875 32.31640625 C6.7617082 17.7246565 -0.03502915 8.91548983 -14.5625 2.625 C-23.44343775 -0.96153255 -33.45855417 -0.49022513 -42.375 2.6875 C-54.15911518 7.79108273 -61.78964844 15.66118508 -66.703125 27.44921875 C-67.62913545 29.68475788 -67.62913545 29.68475788 -68.3203125 32.328125 C-69.5625 34.625 -69.5625 34.625 -72.1015625 35.41015625 C-73.62910156 35.54744141 -73.62910156 35.54744141 -75.1875 35.6875 C-82.40832936 36.63009928 -87.18845696 38.25095696 -92.375 43.4375 C-97.11338809 50.34200836 -98.74585761 56.34149671 -97.5625 64.625 C-95.26658631 72.02294412 -91.2796441 76.81674466 -84.5625 80.625 C-81.07918071 81.78610643 -78.26780456 81.78488294 -74.59375 81.8359375 C-73.20441507 81.86399464 -71.81509229 81.89265902 -70.42578125 81.921875 C-68.2400736 81.9631983 -66.05459579 82.000095 -63.86865234 82.02636719 C-61.75571225 82.05395002 -59.64379625 82.09980203 -57.53125 82.1484375 C-56.26732422 82.16825684 -55.00339844 82.18807617 -53.70117188 82.20849609 C-50.5625 82.625 -50.5625 82.625 -48.61132812 84.02197266 C-47.5625 85.625 -47.5625 85.625 -47.8125 87.75 C-48.5625 89.625 -48.5625 89.625 -49.5625 90.625 C-53.95737103 90.8939526 -58.35837647 90.8964805 -62.76049805 90.92016602 C-64.96013471 90.93719144 -67.15819259 90.98102434 -69.35742188 91.02539062 C-81.1443908 91.1575524 -89.82714217 89.20018396 -98.58203125 80.91015625 C-104.74652371 73.79728034 -106.99298032 65.62656155 -106.828125 56.3671875 C-105.86683291 46.44326029 -100.99521008 39.06900842 -93.5625 32.625 C-88.99274975 29.61616908 -84.74003877 27.71380465 -79.3125 27.0625 C-77.30754086 26.74737911 -77.30754086 26.74737911 -75.5625 25.625 C-73.81046974 22.80454818 -72.52351978 19.89660113 -71.17578125 16.86328125 C-65.75493773 5.98221762 -54.92359508 -2.37757766 -43.5625 -6.375 C-29.0157749 -11.22390837 -12.66328733 -8.5126499 0 0 Z " fill="#242021" transform="translate(161.5625,46.375)"/>
<path d="M0 0 C3.09251353 0.98291875 5.06477669 2.37072273 7.62719727 4.35864258 C9.01068359 5.42308594 9.01068359 5.42308594 10.42211914 6.5090332 C11.84814453 7.62761719 11.84814453 7.62761719 13.30297852 8.76879883 C14.26526367 9.5106543 15.22754883 10.25250977 16.21899414 11.0168457 C23.22021939 16.43603971 23.22021939 16.43603971 25.61547852 18.83129883 C25.24047852 21.45629883 25.24047852 21.45629883 24.61547852 23.83129883 C22.56079102 24.66333008 22.56079102 24.66333008 19.61547852 24.83129883 C16.97430618 23.3876528 14.77114955 21.47057309 12.49047852 19.51879883 C11.25920469 18.50127004 10.02745107 17.48432149 8.79516602 16.46801758 C8.25617676 16.01128662 7.7171875 15.55455566 7.16186523 15.08398438 C5.42451626 13.63702858 5.42451626 13.63702858 2.61547852 11.83129883 C2.61991974 12.50337372 2.62436096 13.17544861 2.62893677 13.8678894 C2.67307486 20.84281291 2.70330519 27.81769696 2.7253418 34.79272461 C2.73541916 37.39820974 2.74908122 40.00368352 2.76635742 42.60913086 C2.79052954 46.34727782 2.80194411 50.08527567 2.81079102 53.82348633 C2.82111359 54.99434784 2.83143616 56.16520935 2.84207153 57.37155151 C2.8422226 58.45252106 2.84237366 59.5334906 2.8425293 60.6472168 C2.84697052 61.60207977 2.85141174 62.55694275 2.85598755 63.54074097 C2.61547852 65.83129883 2.61547852 65.83129883 0.61547852 67.83129883 C-2.31905409 67.46448225 -3.24889394 66.96692637 -5.38452148 64.83129883 C-5.62503052 62.6166687 -5.62503052 62.6166687 -5.61157227 59.83081055 C-5.6114212 58.78988251 -5.61127014 57.74895447 -5.6111145 56.67648315 C-5.59563065 54.98581223 -5.59563065 54.98581223 -5.57983398 53.26098633 C-5.57700409 52.10962189 -5.57417419 50.95825745 -5.57125854 49.77200317 C-5.56003556 46.08333071 -5.53492704 42.39489829 -5.50952148 38.70629883 C-5.49949443 36.21020858 -5.4903681 33.71411453 -5.48217773 31.21801758 C-5.46008932 25.08902899 -5.42659095 18.96018105 -5.38452148 12.83129883 C-6.20436523 13.44618164 -7.02420898 14.06106445 -7.86889648 14.69458008 C-11.04077148 17.07348633 -14.21264648 19.45239258 -17.38452148 21.83129883 C-18.48280273 22.72848633 -18.48280273 22.72848633 -19.60327148 23.64379883 C-21.38452148 24.83129883 -21.38452148 24.83129883 -24.13452148 24.51879883 C-24.87702148 24.29192383 -25.61952148 24.06504883 -26.38452148 23.83129883 C-26.71452148 22.18129883 -27.04452148 20.53129883 -27.38452148 18.83129883 C-21.39969477 13.77473095 -15.29714141 8.88068081 -9.00952148 4.20629883 C-8.13626221 3.53171631 -8.13626221 3.53171631 -7.24536133 2.84350586 C-3.0545291 -0.21610316 -3.0545291 -0.21610316 0 0 Z " fill="#262324" transform="translate(134.384521484375,83.168701171875)"/>
</svg>
